<svg width="125" height="28" viewBox="0 0 125 28" fill="none" xmlns="http://www.w3.org/2000/svg">
<path fill-rule="evenodd" clip-rule="evenodd" d="M47.875 7.18972H58.5747L53.3082 26.0557H60.7123L65.9788 7.18972H74.6154L76.6041 4.94498H69.6079L70.5308 3.89704H77.5449L78.5392 2.77764H71.3585L72.2814 1.29504H79.8522L81.0073 0H51.1707L47.875 7.18972Z" fill="#ED3237"/>
<path fill-rule="evenodd" clip-rule="evenodd" d="M20.2503 26.3115H0L3.1081 21.2891L14.7546 21.3576L20.0538 0.196289H26.8089L21.4025 21.3576L20.2503 26.3115Z" fill="#ED3237"/>
<path fill-rule="evenodd" clip-rule="evenodd" d="M51.7215 26.0468H45.151L44.0227 24.7964C40.8878 26.669 37.1426 27.6187 33.4152 27.0679C28.8245 26.1629 26.0647 23.3763 26.4547 18.8213C27.068 15.6418 28.4613 12.9892 30.5215 10.7861C28.2232 6.17753 29.0657 3.01881 30.5393 0.151855H46.4222L43.7667 6.2073C41.7065 2.05125 35.1896 3.0992 35.4486 8.65746L43.2248 17.2583C43.8917 16.4426 44.5645 14.576 45.2314 12.4652L50.1139 14.8975C49.3755 17.1333 48.533 19.3632 47.3809 21.2268L47.3987 21.2447L51.7215 26.0468ZM40.1465 20.4706L34.1268 14.2128C27.8778 18.7409 34.2161 26.1272 40.1465 20.4706Z" fill="#ED3237"/>
<path fill-rule="evenodd" clip-rule="evenodd" d="M77.3662 16.1833C77.3662 16.219 77.3662 16.2726 77.3573 16.353C77.3483 16.4244 77.3394 16.5137 77.3215 16.609C77.3037 16.6983 77.2858 16.7966 77.259 16.9008C77.2322 17.0079 77.2054 17.0972 77.1608 17.1836C77.1251 17.264 77.0804 17.3354 77.0268 17.3979C76.9732 17.4515 76.9107 17.4783 76.8482 17.4783H73.3054L72.8172 19.9017H75.827C75.8985 19.9017 75.9521 19.9285 75.9789 19.9731C76.0146 20.0267 76.0325 20.0982 76.0325 20.1875C76.0325 20.2321 76.0235 20.2857 76.0235 20.3572C76.0146 20.4286 75.9967 20.5179 75.9789 20.6132C75.9699 20.7025 75.9521 20.8008 75.9253 20.896C75.8985 20.9943 75.8628 21.0836 75.827 21.161C75.7913 21.2414 75.7377 21.3128 75.6931 21.3664C75.6395 21.4111 75.5859 21.4379 75.5234 21.4379H72.5135L71.9538 24.2334H75.5412C75.6038 24.2334 75.6573 24.2602 75.6841 24.3227C75.7109 24.3674 75.7288 24.4477 75.7288 24.5549C75.7288 24.5906 75.7288 24.6442 75.7199 24.7246C75.7199 24.805 75.702 24.8943 75.6841 24.9806C75.6663 25.0789 75.6484 25.1771 75.6216 25.2724C75.5948 25.3706 75.568 25.46 75.5234 25.5463C75.4876 25.6267 75.443 25.6981 75.3894 25.7517C75.3358 25.7964 75.2822 25.8232 75.2197 25.8232H70.2211C70.1408 25.8232 70.0693 25.8142 69.9978 25.7874C69.9264 25.7696 69.8728 25.7249 69.8371 25.6713C69.7924 25.6177 69.7567 25.5552 69.7478 25.4748C69.7299 25.3945 69.7299 25.2962 69.7478 25.1831L71.4775 16.5286C71.5221 16.3053 71.6204 16.1386 71.7603 16.0404C71.8943 15.9421 72.0521 15.8885 72.2218 15.8885H77.1578C77.2918 15.8885 77.3543 15.9868 77.3543 16.1803L77.3662 16.1833ZM83.0376 20.7025L84.5649 25.0432C84.6184 25.2307 84.6542 25.3706 84.6631 25.4867C84.672 25.5939 84.6363 25.6832 84.5649 25.7338C84.4934 25.7964 84.3773 25.8321 84.2195 25.85C84.0498 25.8678 83.8295 25.8678 83.5348 25.8678C83.3204 25.8678 83.1626 25.8678 83.0376 25.8589C82.9126 25.85 82.8232 25.8321 82.7548 25.8053C82.6833 25.7785 82.6387 25.7517 82.6119 25.7071C82.5761 25.6713 82.5583 25.6177 82.5315 25.5552L81.3228 21.941L78.7744 25.5552C78.7297 25.6177 78.6851 25.6713 78.6315 25.7071C78.5868 25.7517 78.5154 25.7785 78.4261 25.8053C78.3367 25.8321 78.2117 25.85 78.0718 25.8589C77.9199 25.8678 77.7354 25.8678 77.5031 25.8678C77.2382 25.8678 77.0238 25.8678 76.872 25.85C76.7202 25.8321 76.616 25.7964 76.5713 25.7428C76.5267 25.6892 76.5267 25.5999 76.5802 25.4957C76.6249 25.3885 76.7142 25.2486 76.8452 25.07L80.1111 20.6936L78.7267 16.6537C78.6732 16.475 78.6374 16.3351 78.6285 16.219C78.6196 16.1118 78.6553 16.0314 78.7267 15.9779C78.7893 15.9153 78.9054 15.8796 79.0721 15.8707C79.2328 15.8528 79.4621 15.8439 79.7479 15.8439C79.9622 15.8439 80.1379 15.8528 80.2629 15.8617C80.388 15.8707 80.4862 15.8885 80.5547 15.9153C80.6261 15.9421 80.6797 15.9779 80.7065 16.0225C80.7422 16.0672 80.769 16.1297 80.7869 16.2011L81.8438 19.4402L84.1689 16.1565C84.2046 16.1029 84.2493 16.0493 84.3029 16.0046C84.3475 15.9689 84.41 15.9332 84.4904 15.9064C84.5797 15.8885 84.6869 15.8707 84.8179 15.8617C84.9519 15.8528 85.1275 15.8439 85.3508 15.8439C85.6336 15.8439 85.8569 15.8528 86.0177 15.8707C86.1785 15.8796 86.2737 15.9153 86.3273 15.9779C86.372 16.0314 86.372 16.1118 86.3273 16.219C86.2826 16.3351 86.1933 16.475 86.0713 16.6537L83.0346 20.7025H83.0376ZM94.1958 18.3327C94.1958 18.6156 94.1601 18.9192 94.0976 19.2289C94.035 19.5385 93.9279 19.8511 93.7879 20.1428C93.645 20.4435 93.4605 20.7293 93.2283 20.9943C92.996 21.2592 92.7221 21.5004 92.3947 21.7147C92.0672 21.9202 91.6742 22.0869 91.2395 22.203C90.8049 22.328 90.2988 22.3816 89.7123 22.3816H88.6733L88.0332 25.5612C88.0243 25.6148 87.9975 25.6594 87.9617 25.7041C87.9171 25.7398 87.8546 25.7755 87.7653 25.8023C87.6759 25.8291 87.5688 25.847 87.4378 25.8559C87.3038 25.8738 87.1371 25.8738 86.9495 25.8738C86.753 25.8738 86.6042 25.8738 86.4702 25.8559C86.3452 25.847 86.2469 25.8291 86.1785 25.8023C86.107 25.7755 86.0623 25.7398 86.0355 25.7041C86.0088 25.6684 85.9998 25.6148 86.0177 25.5612L87.8099 16.6209C87.8546 16.3798 87.9528 16.1952 88.1106 16.0791C88.2624 15.954 88.447 15.8915 88.6703 15.8915H90.8466C91.1115 15.8915 91.3527 15.9004 91.5581 15.9183C91.7724 15.9362 91.9749 15.9719 92.1803 16.0076C92.4899 16.0701 92.7757 16.1684 93.0228 16.2905C93.2699 16.4244 93.4754 16.5822 93.654 16.7698C93.8326 16.9663 93.9636 17.1866 94.0529 17.4545C94.1422 17.7105 94.1958 18.0053 94.1958 18.3327ZM92.0731 18.556C92.0731 18.3149 92.0106 18.1035 91.8945 17.916C91.7784 17.7373 91.5938 17.6153 91.3527 17.5438C91.2366 17.5081 91.1205 17.4813 90.9895 17.4724C90.8555 17.4545 90.7066 17.4545 90.5459 17.4545H89.6587L88.9829 20.8276H89.9058C90.1976 20.8276 90.4476 20.7918 90.6501 20.7204C90.8644 20.6579 91.0401 20.5596 91.2008 20.4554C91.3616 20.3393 91.4926 20.2054 91.5998 20.0565C91.7159 19.8957 91.8052 19.7379 91.8737 19.5682C91.9362 19.3986 91.9898 19.2318 92.0166 19.0532C92.0523 18.8835 92.0702 18.7168 92.0702 18.556H92.0731ZM102.681 18.0589C102.681 18.3953 102.636 18.7168 102.547 19.0353C102.457 19.3628 102.314 19.6665 102.121 19.9493C101.924 20.2411 101.668 20.5001 101.368 20.7293C101.058 20.9615 100.674 21.1461 100.23 21.2801C100.48 21.3783 100.683 21.5718 100.853 21.8576C101.022 22.1494 101.162 22.5424 101.269 23.0485L101.651 25.064C101.677 25.1801 101.695 25.2783 101.713 25.3647C101.731 25.454 101.74 25.5344 101.74 25.5969C101.74 25.6416 101.722 25.6862 101.686 25.7219C101.651 25.7577 101.597 25.7845 101.499 25.8113C101.409 25.838 101.293 25.8559 101.144 25.8648C100.993 25.8738 100.799 25.8738 100.567 25.8738C100.352 25.8738 100.177 25.8738 100.052 25.8559C99.9268 25.847 99.8196 25.8291 99.7511 25.7934C99.6797 25.7666 99.635 25.7309 99.6171 25.6862C99.5903 25.6416 99.5725 25.588 99.5635 25.5254L99.1825 23.3224C99.1467 23.0664 99.0842 22.8431 99.0128 22.6466C98.9503 22.4501 98.852 22.2923 98.7478 22.1583C98.6406 22.0244 98.5067 21.9261 98.3578 21.8666C98.1971 21.8041 98.0125 21.7683 97.7892 21.7683H97.1491L96.3959 25.5582C96.3959 25.6118 96.3691 25.6564 96.3244 25.7011C96.2798 25.7368 96.2173 25.7725 96.1369 25.7993C96.0476 25.8261 95.9404 25.844 95.8094 25.8529C95.6754 25.8708 95.5087 25.8708 95.3122 25.8708C95.1157 25.8708 94.9669 25.8708 94.8418 25.8529C94.7079 25.844 94.6096 25.8261 94.5412 25.7993C94.4697 25.7725 94.4251 25.7368 94.3983 25.7011C94.3715 25.6654 94.3625 25.6118 94.3804 25.5582L96.1905 16.5286C96.2351 16.3053 96.3244 16.1386 96.4554 16.0404C96.5983 15.9421 96.7651 15.8885 96.9526 15.8885H99.6171C100.088 15.8885 100.504 15.9332 100.885 16.0225C101.258 16.1118 101.579 16.2458 101.844 16.4214C102.118 16.6001 102.323 16.8293 102.466 17.0972C102.609 17.3711 102.681 17.6927 102.681 18.0559V18.0589ZM100.513 18.4399C100.513 18.297 100.486 18.166 100.433 18.041C100.388 17.916 100.308 17.8088 100.201 17.7135C100.093 17.6242 99.9506 17.5617 99.7839 17.5081C99.6052 17.4545 99.4028 17.4366 99.1616 17.4366H98.0154L97.4468 20.2589H98.4144C98.7954 20.2589 99.1259 20.2054 99.3909 20.0982C99.6558 19.9821 99.8702 19.8421 100.04 19.6635C100.201 19.4938 100.323 19.3003 100.394 19.086C100.475 18.8716 100.51 18.6602 100.51 18.4369L100.513 18.4399ZM110.9 16.1863C110.9 16.222 110.9 16.2756 110.891 16.3559C110.883 16.4274 110.865 16.5167 110.856 16.612C110.838 16.7013 110.82 16.7995 110.793 16.9037C110.766 17.0109 110.731 17.1002 110.695 17.1866C110.659 17.2669 110.606 17.3384 110.552 17.4009C110.498 17.4545 110.445 17.4813 110.382 17.4813H106.84L106.351 19.9047H109.361C109.433 19.9047 109.486 19.9315 109.513 19.9761C109.549 20.0297 109.558 20.1012 109.558 20.1905C109.558 20.2351 109.558 20.2887 109.549 20.3602C109.54 20.4316 109.531 20.5209 109.513 20.6162C109.504 20.7055 109.477 20.8038 109.451 20.899C109.424 20.9973 109.397 21.0866 109.352 21.164C109.317 21.2444 109.272 21.3158 109.218 21.3694C109.165 21.4141 109.111 21.4409 109.049 21.4409H106.039L105.479 24.2364H109.075C109.138 24.2364 109.183 24.2632 109.209 24.3257C109.245 24.3703 109.263 24.4507 109.263 24.5579C109.263 24.5936 109.254 24.6472 109.254 24.7276C109.245 24.808 109.236 24.8973 109.218 24.9836C109.2 25.0819 109.183 25.1801 109.156 25.2754C109.129 25.3736 109.093 25.4629 109.058 25.5493C109.022 25.6296 108.977 25.7011 108.924 25.7547C108.87 25.7993 108.816 25.8261 108.745 25.8261H103.755C103.675 25.8261 103.595 25.8172 103.532 25.7904C103.461 25.7725 103.407 25.7279 103.362 25.6743C103.318 25.6207 103.291 25.5582 103.273 25.4778C103.255 25.3974 103.264 25.2992 103.282 25.1861L105.012 16.5316C105.056 16.3083 105.146 16.1416 105.286 16.0433C105.428 15.9451 105.586 15.8915 105.756 15.8915H110.683C110.817 15.8915 110.888 15.9898 110.888 16.1833L110.9 16.1863ZM117.691 16.6566C117.691 16.7013 117.682 16.7638 117.673 16.8442C117.664 16.9156 117.655 17.005 117.638 17.0913C117.629 17.1806 117.602 17.2789 117.584 17.3741C117.557 17.4634 117.53 17.5527 117.495 17.6302C117.459 17.7105 117.423 17.7731 117.379 17.8266C117.334 17.8802 117.289 17.907 117.245 17.907C117.173 17.907 117.084 17.8713 116.98 17.8088C116.872 17.7463 116.739 17.6748 116.581 17.5944C116.42 17.523 116.244 17.4515 116.03 17.389C115.825 17.3176 115.586 17.2908 115.318 17.2908C115.045 17.2908 114.812 17.3265 114.616 17.4069C114.428 17.4783 114.27 17.5855 114.145 17.7076C114.02 17.8326 113.931 17.9725 113.88 18.1333C113.818 18.2851 113.791 18.4429 113.791 18.6037C113.791 18.7823 113.836 18.949 113.925 19.0919C114.023 19.2348 114.139 19.3569 114.297 19.4819C114.449 19.598 114.625 19.7141 114.821 19.8273C115.018 19.9434 115.22 20.0595 115.426 20.1815C115.622 20.2976 115.825 20.4376 116.021 20.5805C116.218 20.7323 116.393 20.8901 116.554 21.0866C116.706 21.2831 116.828 21.4944 116.917 21.7445C117.006 21.9916 117.06 22.2864 117.06 22.6049C117.06 23.0842 116.962 23.5278 116.768 23.9446C116.572 24.3525 116.298 24.7067 115.944 25.0193C115.58 25.32 115.155 25.5612 114.649 25.7309C114.142 25.9095 113.583 25.9958 112.969 25.9958C112.633 25.9958 112.329 25.969 112.047 25.9065C111.773 25.8619 111.514 25.7904 111.302 25.71C111.088 25.6386 110.903 25.5582 110.76 25.4689C110.609 25.3796 110.495 25.2992 110.424 25.2277C110.353 25.1474 110.317 25.0312 110.317 24.8824C110.317 24.8377 110.326 24.7752 110.335 24.6948C110.344 24.6055 110.362 24.5162 110.379 24.4299C110.397 24.3316 110.415 24.2334 110.442 24.1381C110.469 24.0399 110.495 23.9416 110.531 23.8642C110.567 23.7838 110.612 23.7124 110.656 23.6588C110.701 23.6141 110.746 23.5874 110.79 23.5874C110.88 23.5874 110.987 23.6231 111.1 23.7035C111.225 23.7838 111.374 23.8732 111.552 23.9684C111.731 24.0577 111.942 24.156 112.192 24.2334C112.434 24.3138 112.725 24.3584 113.071 24.3584C113.371 24.3584 113.639 24.3138 113.869 24.2423C114.101 24.1619 114.285 24.0548 114.437 23.9238C114.598 23.7898 114.711 23.6409 114.791 23.4623C114.872 23.2926 114.908 23.0991 114.908 22.8937C114.908 22.6972 114.863 22.5305 114.774 22.3965C114.675 22.2447 114.559 22.1226 114.41 21.9976C114.259 21.8725 114.083 21.7564 113.895 21.6522C113.699 21.5451 113.505 21.4379 113.309 21.3158C113.103 21.1908 112.91 21.0598 112.722 20.9169C112.526 20.774 112.359 20.6073 112.207 20.4108C112.056 20.2143 111.933 20.0029 111.844 19.7439C111.746 19.4968 111.701 19.2021 111.701 18.8746C111.701 18.4131 111.791 17.9874 111.975 17.5974C112.163 17.2163 112.419 16.8769 112.737 16.603C113.065 16.3202 113.458 16.1059 113.91 15.9451C114.363 15.7933 114.869 15.7129 115.411 15.7129C115.667 15.7129 115.917 15.7308 116.149 15.7665C116.381 15.8111 116.593 15.8558 116.78 15.9183C116.968 15.9719 117.134 16.0433 117.268 16.1148C117.402 16.1863 117.492 16.2488 117.542 16.2934C117.596 16.347 117.632 16.4006 117.658 16.4453C117.676 16.5078 117.694 16.5703 117.694 16.6507L117.691 16.6566ZM124.997 16.6566C124.997 16.7013 124.997 16.7638 124.988 16.8442C124.979 16.9156 124.97 17.005 124.952 17.0913C124.934 17.1806 124.917 17.2789 124.89 17.3741C124.872 17.4634 124.836 17.5527 124.809 17.6302C124.774 17.7105 124.729 17.7731 124.693 17.8266C124.649 17.8802 124.604 17.907 124.559 17.907C124.488 17.907 124.399 17.8713 124.285 17.8088C124.178 17.7463 124.044 17.6748 123.895 17.5944C123.735 17.523 123.559 17.4515 123.345 17.389C123.13 17.3176 122.901 17.2908 122.633 17.2908C122.359 17.2908 122.118 17.3265 121.931 17.4069C121.734 17.4783 121.585 17.5855 121.46 17.7076C121.335 17.8326 121.246 17.9725 121.186 18.1333C121.133 18.2851 121.097 18.4429 121.097 18.6037C121.097 18.7823 121.151 18.949 121.24 19.0919C121.329 19.2348 121.454 19.3569 121.612 19.4819C121.764 19.598 121.94 19.7141 122.136 19.8273C122.332 19.9434 122.535 20.0595 122.731 20.1815C122.937 20.2976 123.139 20.4376 123.336 20.5805C123.532 20.7323 123.708 20.8901 123.86 21.0866C124.021 21.2831 124.143 21.4944 124.232 21.7445C124.321 21.9916 124.375 22.2864 124.375 22.6049C124.375 23.0842 124.277 23.5278 124.083 23.9446C123.887 24.3525 123.613 24.7067 123.258 25.0193C122.895 25.32 122.469 25.5612 121.963 25.7309C121.457 25.9095 120.898 25.9958 120.275 25.9958C119.948 25.9958 119.644 25.969 119.361 25.9065C119.079 25.8619 118.828 25.7904 118.617 25.71C118.403 25.6386 118.218 25.5582 118.066 25.4689C117.923 25.3796 117.81 25.2992 117.739 25.2277C117.667 25.1474 117.632 25.0312 117.632 24.8824C117.632 24.8377 117.641 24.7752 117.649 24.6948C117.658 24.6055 117.676 24.5162 117.694 24.4299C117.712 24.3316 117.73 24.2334 117.757 24.1381C117.783 24.0399 117.81 23.9416 117.846 23.8642C117.882 23.7838 117.926 23.7124 117.962 23.6588C118.007 23.6141 118.051 23.5874 118.105 23.5874C118.194 23.5874 118.293 23.6231 118.415 23.7035C118.54 23.7838 118.68 23.8732 118.867 23.9684C119.046 24.0577 119.257 24.156 119.507 24.2334C119.748 24.3138 120.04 24.3584 120.385 24.3584C120.686 24.3584 120.954 24.3138 121.183 24.2423C121.407 24.1619 121.6 24.0548 121.752 23.9238C121.913 23.7898 122.026 23.6409 122.097 23.4623C122.187 23.2926 122.222 23.0991 122.222 22.8937C122.222 22.6972 122.178 22.5305 122.079 22.3965C121.99 22.2447 121.874 22.1226 121.716 21.9976C121.573 21.8725 121.398 21.7564 121.21 21.6522C121.014 21.5451 120.82 21.4379 120.615 21.3158C120.418 21.1908 120.225 21.0598 120.028 20.9169C119.841 20.774 119.665 20.6073 119.522 20.4108C119.361 20.2143 119.248 20.0029 119.159 19.7439C119.061 19.4968 119.016 19.2021 119.016 18.8746C119.016 18.4131 119.105 17.9874 119.29 17.5974C119.477 17.2163 119.725 16.8769 120.052 16.603C120.38 16.3202 120.772 16.1059 121.225 15.9451C121.678 15.7933 122.184 15.7129 122.725 15.7129C122.982 15.7129 123.232 15.7308 123.464 15.7665C123.696 15.8111 123.898 15.8558 124.095 15.9183C124.283 15.9719 124.449 16.0433 124.583 16.1148C124.717 16.1863 124.806 16.2488 124.857 16.2934C124.911 16.347 124.946 16.4006 124.973 16.4453C124.991 16.5078 125 16.5703 125 16.6507L124.997 16.6566Z" fill="#ED3237"/>
</svg>
