<svg width="10" height="9" viewBox="0 0 10 9" fill="none" xmlns="http://www.w3.org/2000/svg">
<path d="M1.61407 0.929289L1.54336 0.858579L1.47265 0.929289L1.18515 1.21679L1.11444 1.2875L1.18515 1.35821L4.57069 4.74375L1.18515 8.12929L1.11444 8.2L1.18515 8.27071L1.47265 8.55821L1.54336 8.62892L1.61407 8.55821L4.99961 5.17267L8.38515 8.55821L8.45586 8.62892L8.52657 8.55821L8.81407 8.27071L8.88478 8.2L8.81407 8.12929L5.42853 4.74375L8.81407 1.35821L8.88478 1.2875L8.81407 1.21679L8.52657 0.929289L8.45586 0.858579L8.38515 0.929289L4.99961 4.31483L1.61407 0.929289Z" fill="white" stroke="white" stroke-width="0.2"/>
</svg>
