<svg width="145" height="23" viewBox="0 0 145 23" fill="none" xmlns="http://www.w3.org/2000/svg">
<g clip-path="url(#clip0_131_48)">
<path d="M42.5525 7.56044C41.0423 7.56044 39.5809 8.22108 38.4848 9.24874L38.6553 8.0498C38.8014 6.97321 37.0721 6.97321 36.9259 8.0498L34.953 22.1924C34.8068 23.269 36.5362 23.269 36.6823 22.1924L37.5592 15.9041C38.363 16.9317 39.6296 17.5924 41.1398 17.5924C43.9652 17.5924 46.5715 15.3413 46.9612 12.6009C47.3753 9.81151 45.378 7.56044 42.5525 7.56044ZM41.4321 15.7573C39.6296 15.7573 38.363 14.3136 38.6066 12.5519C38.8258 10.9615 40.1898 9.64023 41.7974 9.39555H41.8218C41.9923 9.37108 42.1628 9.34661 42.3333 9.34661C43.6729 9.34661 44.7203 10.1296 45.0613 11.2551C45.0613 11.2551 45.0613 11.2551 45.0613 11.2796C45.1831 11.6711 45.2075 12.1115 45.1587 12.5519C44.8908 14.3136 43.2345 15.7573 41.4321 15.7573ZM28.4495 17.5679C25.6241 17.5679 23.6511 15.3168 24.0165 12.5764C24.4062 9.81151 27.0124 7.58491 29.8379 7.58491C32.6634 7.58491 34.6363 9.83597 34.271 12.5764C33.9056 15.3168 31.275 17.5679 28.4495 17.5679ZM29.5943 9.37108C27.7919 9.37108 26.1356 10.8147 25.8676 12.5764C25.6241 14.3381 26.8906 15.7817 28.6931 15.7817C30.4955 15.7817 32.1519 14.3381 32.4198 12.5764C32.6634 10.7902 31.3968 9.37108 29.5943 9.37108ZM70.32 12.4541C70.5879 10.1541 69.6867 8.07427 67.251 7.60938C65.1562 7.21789 62.5013 8.31895 61.3077 10.2764C60.0655 12.3073 60.0899 15.1211 61.7462 16.5402C63.573 18.0817 66.7882 17.5924 69.0291 16.4668C70.0764 15.9285 69.3944 14.4849 68.3714 15.0232C66.9587 15.7573 65.1806 16.0998 63.7678 15.6104C62.7205 15.2434 62.2333 14.3136 62.1846 13.286H69.3457C69.8085 13.3104 70.2713 12.919 70.32 12.4541ZM62.4769 11.6221C62.5013 11.5487 62.5256 11.4998 62.55 11.4264C63.1589 10.0562 64.6691 9.27321 66.1062 9.22427C67.7625 9.17534 68.5176 10.2764 68.615 11.6221H62.4769ZM58.8476 12.4785C59.1156 10.1785 58.2143 8.09874 55.7786 7.63385C53.6839 7.24236 51.0289 8.34342 49.8354 10.3009C48.5931 12.3317 48.6175 15.1455 50.2738 16.5647C52.1006 18.1062 55.3158 17.6168 57.5567 16.4913C58.6041 15.953 57.9221 14.5094 56.899 15.0477C55.4863 15.7817 53.7082 16.1243 52.2955 15.6349C51.2481 15.2679 50.761 14.3381 50.7122 13.3104H57.8733C58.3361 13.3104 58.7989 12.919 58.8476 12.4785ZM51.0045 11.6466C51.0289 11.5732 51.0532 11.5243 51.0776 11.4509C51.6865 10.0807 53.1967 9.29768 54.6338 9.24874C56.2901 9.1998 57.0452 10.3009 57.1426 11.6466H51.0045ZM22.2627 10.8636L21.4346 16.687C21.2884 17.7881 19.559 17.7881 19.7052 16.687L20.509 10.9615C20.6064 9.83597 19.7295 9.29768 19.6808 9.29768C18.536 8.75938 16.2708 9.00406 14.7119 10.6924L13.8838 16.687C13.7376 17.7881 12.0082 17.7881 12.1544 16.687L14.2491 1.6881C14.3953 0.587039 16.1246 0.587039 15.9785 1.6881L15.0286 8.44129C17.3425 7.02214 19.9975 7.16895 21.1423 8.0498C21.1666 8.0498 22.555 8.88172 22.2627 10.8636ZM11.3262 2.37321C9.91349 0.513634 6.38166 0.464698 4.14077 1.76151C1.99731 3.00938 0.803796 5.84768 2.24089 7.63385C3.99462 9.86044 8.15975 9.07746 9.40198 11.8913C10.3032 13.9466 8.18411 15.7817 6.11372 15.8307C4.48177 15.8551 2.55753 15.3168 1.58324 14.1424C0.925584 13.3594 -0.438434 14.5338 0.19486 15.3168C1.63195 17.0541 4.5792 17.837 7.03931 17.3721C9.32891 16.9562 11.4237 14.8519 11.3506 12.6253C11.2775 9.83597 8.67126 8.49023 6.25987 7.75619C4.50613 7.21789 2.04603 6.01895 4.11641 3.79236C5.5535 2.2264 8.8174 2.03066 9.9622 3.54768C10.5711 4.37959 11.9595 3.18066 11.3262 2.37321Z" fill="#E9481F"/>
<path fill-rule="evenodd" clip-rule="evenodd" d="M96.4799 0H126.513L123.249 3.40106H93.216L96.4799 0ZM83.1807 18.5713L81.4269 13.9468L85.0318 10.2032L88.1983 18.5957H83.1807V18.5713ZM93.1916 0L85.4216 8.07447L83.9358 4.13511L87.906 0H93.1916ZM79.4783 8.75958L70.052 18.5713H75.3376L84.5934 8.95532L81.2077 0H76.1901L79.4783 8.75958ZM88.5393 18.5713H91.6571L92.948 14.2894C95.9196 14.2894 96.3581 14.1426 97.6003 13.6043C99.013 13.017 100.84 10.9372 100.84 8.90638C100.84 6.97341 99.281 6.06809 96.626 6.06809H92.2904L88.5393 18.5713ZM133.187 18.4979C131.676 18.7181 129.996 18.3021 128.875 17.6904C129.509 17.1521 129.923 16.3936 130.069 15.2436C130.605 15.684 131.798 16.1 132.651 16.1C133.43 16.1245 134.843 15.8309 135.013 14.9255C135.184 14.0447 133.43 13.6043 132.358 13.0415C131.482 12.5766 130.459 11.5489 130.434 10.4968C130.385 9.39575 130.775 8.53936 131.603 7.68298C132.383 6.85106 133.795 6.21489 135.379 6.09255C137.376 5.92128 139.081 6.43511 139.666 6.92447L137.912 8.97979C137.157 8.44149 135.915 8.36809 134.989 8.61277C134.356 8.75958 133.576 9.39575 133.625 10.1053C133.674 10.9372 134.526 11.0596 135.72 11.7202C136.329 12.0628 137.961 12.8213 137.961 14.3138C137.961 15.2192 137.595 16.5404 136.597 17.2989C135.281 18.2532 134.331 18.3266 133.187 18.4979ZM123.371 18.5713C124.54 18.5713 126.099 18.4 127.365 17.5436C128.364 16.8585 128.9 15.317 128.802 14.3138C128.656 12.8213 127.414 12.234 126.561 11.7692C125.343 11.1085 124.759 10.9862 124.71 10.1543C124.661 9.44468 125.441 8.83298 126.05 8.6617C127 8.41702 127.901 8.36809 129.143 9.2C129.338 8.29468 129.801 7.53617 130.532 6.94894C129.971 6.45958 128.193 6.09255 126.805 6.09255C125.222 6.09255 124.053 6.67979 123.029 7.48724C122.08 8.22128 121.471 9.83617 121.69 10.8883C121.909 11.8915 122.908 12.9436 123.833 13.384C124.905 13.8979 126.196 14.2894 125.977 15.1947C125.758 16.0755 124.491 16.3447 123.712 16.3202C122.859 16.2957 121.763 16.2223 120.764 16.0266L119.96 18.4245C121.105 18.5713 122.226 18.5713 123.371 18.5713ZM113.725 16.0021H118.718L118.061 18.5713C115.333 18.5713 112.629 18.5713 109.901 18.5713L113.554 6.06809H121.714L120.983 8.31915H115.941L115.089 11.0596H120.326L119.546 13.3106H114.48L113.725 16.0021ZM98.94 18.5713L102.691 6.06809H107.027C109.682 6.06809 111.289 6.92447 111.216 8.90638C111.143 10.8883 109.657 13.066 106.783 13.7021L109.097 18.5713H105.492L103.349 13.8L101.912 18.5713H98.94ZM105.005 8.29468L103.909 11.916C105.175 11.916 105.979 11.8915 106.564 11.6223C107.246 11.3287 108.001 10.5457 108.05 9.64043C108.074 8.88192 107.587 8.31915 106.198 8.31915H105.005V8.29468ZM94.7018 8.41702H95.7735C96.8939 8.41702 97.5516 8.80851 97.5516 9.61596C97.5516 10.4723 96.7721 11.3532 96.1876 11.5979C95.6517 11.8181 94.921 11.8915 93.6544 11.8915L94.7018 8.41702ZM127.682 0L124.418 3.40106H130.605L133.844 0H127.682ZM135.013 0H140.007L136.743 3.40106H131.749L135.013 0ZM141.151 0L137.888 3.40106H141.712L145 0H141.151Z" fill="url(#paint0_linear_131_48)"/>
</g>
<defs>
<linearGradient id="paint0_linear_131_48" x1="92.6119" y1="9.28126" x2="145.601" y2="9.28126" gradientUnits="userSpaceOnUse">
<stop stop-color="#E9481F"/>
<stop offset="1" stop-color="#F0832F"/>
</linearGradient>
<clipPath id="clip0_131_48">
<rect width="145" height="23" fill="white"/>
</clipPath>
</defs>
</svg>
