<svg width="122" height="34" viewBox="0 0 122 34" fill="none" xmlns="http://www.w3.org/2000/svg">
<path fill-rule="evenodd" clip-rule="evenodd" d="M11.0766 30.9512C17.1453 30.9512 22.0653 31.4172 22.0653 31.9915C22.0653 32.5659 17.1453 33.0319 11.0766 33.0319C5.00788 33.0319 0.0878906 32.5659 0.0878906 31.9915C0.0878906 31.4172 5.00788 30.9512 11.0766 30.9512Z" fill="#CAC9C9"/>
<path fill-rule="evenodd" clip-rule="evenodd" d="M10.4731 0.0948819L31.2729 8.9234C31.8725 9.17627 32.1543 9.87344 31.8978 10.4731L23.0693 31.2729C22.8164 31.8725 22.1192 32.1543 21.5196 31.8978L0.719814 23.0693C0.120168 22.8164 -0.161593 22.1192 0.0948819 21.5196L8.9234 0.719814C9.17627 0.120168 9.87344 -0.161593 10.4731 0.0948819Z" fill="#921D26"/>
<path fill-rule="evenodd" clip-rule="evenodd" d="M30.7563 10.0361C30.7997 10.1445 30.8033 10.2709 30.7527 10.3865L22.2132 30.5072C22.1157 30.742 21.8411 30.8503 21.6099 30.7528L1.48929 22.2133C1.3737 22.1627 1.287 22.0724 1.24365 21.9604L30.76 10.0361H30.7563Z" fill="#70161E"/>
<path fill-rule="evenodd" clip-rule="evenodd" d="M10.491 1.92663L29.9469 10.1844C30.0661 10.235 30.1203 10.3722 30.0698 10.4914L21.812 29.9474C21.7614 30.0666 21.6241 30.1208 21.5049 30.0702L2.04896 21.8125C1.92975 21.7619 1.87557 21.6246 1.92614 21.5054L10.1839 2.04945C10.2345 1.93024 10.3718 1.87605 10.491 1.92663Z" fill="#D5232B"/>
<path fill-rule="evenodd" clip-rule="evenodd" d="M30.0701 10.3105C30.0918 10.3647 30.0954 10.4298 30.0701 10.4876L21.8123 29.9435C21.7617 30.0627 21.6245 30.1169 21.5053 30.0663L2.04928 21.8086C1.99149 21.7833 1.94814 21.7363 1.92285 21.6821L30.0701 10.3105Z" fill="#A11F24"/>
<path fill-rule="evenodd" clip-rule="evenodd" d="M26.4973 10.8921L14.4249 16.9789L13.2256 11.5857L26.4973 10.8921Z" fill="white"/>
<path fill-rule="evenodd" clip-rule="evenodd" d="M5.79883 21.328L17.8712 15.2412L19.0705 20.6344L5.79883 21.328Z" fill="#E6E6E6"/>
<path fill-rule="evenodd" clip-rule="evenodd" d="M14.4248 16.9787L17.871 15.2412L18.1238 16.3827L14.4248 16.9787Z" fill="#B3B3B3"/>
<path fill-rule="evenodd" clip-rule="evenodd" d="M47.9039 8.92703V12.6116H47.055C47.055 12.6116 45.6029 12.3985 45.6029 13.0379C45.6029 13.6736 46.2386 13.8867 47.1273 14.5948C48.0123 15.3028 49.3922 16.9319 49.3922 18.8103C49.3922 20.6888 48.1532 23.0946 44.2591 23.0946C40.365 23.0946 40.6829 22.6683 40.6829 22.6683V18.525C40.6829 18.525 41.9941 18.9512 43.1971 18.9512C44.4 18.9512 44.6131 18.5611 44.6131 18.171C44.6131 17.7808 40.542 15.3064 40.542 12.8247C40.542 11.8422 40.7912 8.46826 45.2163 8.46826C46.9539 8.50077 47.9075 8.92703 47.9075 8.92703H47.9039Z" fill="#D5232B"/>
<path fill-rule="evenodd" clip-rule="evenodd" d="M50.812 8.46826H55.3057V23.091H50.812V8.46826Z" fill="#D5232B"/>
<path fill-rule="evenodd" clip-rule="evenodd" d="M74.9961 19.3739H79.2045V23.091H74.9961H70.7842V8.46826H74.9961H79.2045V12.1853H74.9961V13.9193H78.6771V17.64H74.9961V19.3739Z" fill="#D5232B"/>
<path fill-rule="evenodd" clip-rule="evenodd" d="M81.1265 8.46826H81.2999H85.3529H86.6822C89.7888 8.46826 92.3319 11.0113 92.3319 14.1179C92.3319 17.2245 90.0561 19.7676 86.9531 19.7676H85.6238V23.0982H81.1301V8.47187L81.1265 8.46826ZM85.6202 12.3623V15.8699H85.8694C86.8339 15.8699 87.6214 15.0824 87.6214 14.1179C87.6214 13.1534 86.8339 12.366 85.8694 12.366H85.6202V12.3623Z" fill="#D5232B"/>
<path fill-rule="evenodd" clip-rule="evenodd" d="M64.6903 8.4502C66.6265 8.4502 68.3857 9.20156 69.6933 10.4297L67.1213 13.7025C66.5361 13.0126 65.6656 12.5755 64.6903 12.5755C62.931 12.5755 61.5042 14.0023 61.5042 15.7615C61.5042 17.5207 62.931 18.9476 64.6903 18.9476C65.6656 18.9476 66.5361 18.5105 67.1213 17.8206L69.6933 21.0933C68.3857 22.3215 66.6265 23.0729 64.6903 23.0729C60.6517 23.0729 57.3789 19.8001 57.3789 15.7615C57.3789 11.723 60.6517 8.4502 64.6903 8.4502Z" fill="#D5232B"/>
<path fill-rule="evenodd" clip-rule="evenodd" d="M98.3608 8.46826L106.033 23.091H90.6846L98.3608 8.46826Z" fill="#D5232B"/>
<path fill-rule="evenodd" clip-rule="evenodd" d="M96.5116 23.0911H93.564L98.4767 15.5991L102.053 19.4968L96.5116 23.0911Z" fill="#E6E6E6"/>
<path fill-rule="evenodd" clip-rule="evenodd" d="M96.4497 18.6877L98.4762 15.5991L99.2348 16.4227L96.4497 18.6877Z" fill="#B3B3B3"/>
<path fill-rule="evenodd" clip-rule="evenodd" d="M99.4412 10.5308L100.489 12.5284L96.4502 18.6874L94.2539 16.2924L96.1612 12.6584L99.4412 10.5308Z" fill="white"/>
<path fill-rule="evenodd" clip-rule="evenodd" d="M107.612 8.46826H112.106H114.783V12.3262H112.106V23.091H107.612V12.3262H104.939V8.46826H107.612Z" fill="#D5232B"/>
<path fill-rule="evenodd" clip-rule="evenodd" d="M81.4046 26.454L81.5093 25.7315H77.4093L77.301 26.454H78.1246H79.6237H81.401H81.4046ZM77.0337 28.2385L76.5352 31.5401H80.758L80.8627 30.8177H77.4707L77.7525 28.9429H80.6713L80.7796 28.2385H79.714H77.8573H77.0337ZM86.1187 28.4299L89.1169 25.7351H88.0368L84.475 28.9465L84.9591 25.7351H84.1283L83.2505 31.5438H84.0813L84.3053 30.0338L85.5298 28.9393L87.4227 31.5438H88.3511L86.1006 28.448L86.115 28.4299H86.1187ZM92.0429 31.6088C93.4878 31.6088 94.4667 30.9297 94.4089 29.799C94.3222 28.0326 91.371 28.6142 91.3132 27.3932C91.2843 26.7791 91.8695 26.3709 92.8231 26.3709C93.4119 26.3709 93.9755 26.5298 94.4234 26.8369L94.7232 26.1578C94.2355 25.8435 93.5456 25.6665 92.834 25.6665C91.4143 25.6665 90.4534 26.3565 90.5076 27.4654C90.5979 29.3222 93.5456 28.7009 93.607 29.9146C93.6395 30.5468 93.0254 30.9008 92.0862 30.9008C91.3637 30.9008 90.6304 30.6443 90.1717 30.2361L89.8393 30.9008C90.2837 31.2981 91.1615 31.6052 92.0465 31.6052L92.0429 31.6088ZM99.5926 25.7351H97.4361L96.5583 31.5438H97.3891L97.6528 29.7846H99.2061C100.882 29.7846 101.886 28.9212 101.814 27.4365C101.76 26.3565 100.951 25.7351 99.5998 25.7351H99.5926ZM99.1808 29.0621H97.7612L98.1585 26.4576H99.5529C100.431 26.4576 100.947 26.8152 100.98 27.5124C101.03 28.5347 100.366 29.0657 99.1808 29.0657V29.0621ZM108.887 27.4365C108.833 26.3565 108.024 25.7351 106.662 25.7351H104.498L103.62 31.5438H104.458L104.722 29.7665H106.272H106.431L107.529 31.5438H108.407L107.251 29.6509C108.331 29.3691 108.941 28.5889 108.884 27.4365H108.887ZM106.261 29.0621H104.827L105.224 26.4576H106.626C107.514 26.4576 108.027 26.8152 108.064 27.5124C108.114 28.5347 107.449 29.0657 106.265 29.0657L106.261 29.0621ZM115.678 26.4576L115.783 25.7351H111.683L111.575 26.4576H112.398H115.675H115.678ZM111.307 28.2421L110.809 31.5438H115.032L115.136 30.8213H111.744L112.026 28.9465H114.945L115.053 28.2421H112.135H111.311H111.307ZM119.32 31.6124C120.764 31.6124 121.743 30.9333 121.686 29.8026C121.599 28.0362 118.648 28.6178 118.59 27.3968C118.561 26.7827 119.146 26.3745 120.1 26.3745C120.689 26.3745 121.252 26.5335 121.7 26.8405L122 26.1614C121.512 25.8471 120.822 25.6701 120.111 25.6701C118.691 25.6701 117.73 26.3601 117.784 27.4691C117.875 29.3258 120.822 28.7045 120.884 29.9182C120.916 30.5504 120.302 30.9044 119.363 30.9044C118.64 30.9044 117.907 30.6479 117.448 30.2397L117.116 30.9044C117.56 31.3017 118.438 31.6088 119.323 31.6088L119.32 31.6124Z" fill="#999999"/>
</svg>
