<svg width="165" height="30" viewBox="0 0 165 30" fill="none" xmlns="http://www.w3.org/2000/svg">
<circle cx="9" cy="21" r="9" fill="white"/>
<circle cx="17" cy="13" r="9" fill="white"/>
<rect x="8" y="12" width="10" height="10" fill="black"/>
<path d="M39.2 22.14C38.2267 22.14 37.3467 21.9733 36.56 21.64C35.7867 21.3067 35.1733 20.8267 34.72 20.2C34.2667 19.5733 34.0333 18.8333 34.02 17.98H37.02C37.06 18.5533 37.26 19.0067 37.62 19.34C37.9933 19.6733 38.5 19.84 39.14 19.84C39.7933 19.84 40.3067 19.6867 40.68 19.38C41.0533 19.06 41.24 18.6467 41.24 18.14C41.24 17.7267 41.1133 17.3867 40.86 17.12C40.6067 16.8533 40.2867 16.6467 39.9 16.5C39.5267 16.34 39.0067 16.1667 38.34 15.98C37.4333 15.7133 36.6933 15.4533 36.12 15.2C35.56 14.9333 35.0733 14.54 34.66 14.02C34.26 13.4867 34.06 12.78 34.06 11.9C34.06 11.0733 34.2667 10.3533 34.68 9.74C35.0933 9.12667 35.6733 8.66 36.42 8.34C37.1667 8.00667 38.02 7.84 38.98 7.84C40.42 7.84 41.5867 8.19333 42.48 8.9C43.3867 9.59333 43.8867 10.5667 43.98 11.82H40.9C40.8733 11.34 40.6667 10.9467 40.28 10.64C39.9067 10.32 39.4067 10.16 38.78 10.16C38.2333 10.16 37.7933 10.3 37.46 10.58C37.14 10.86 36.98 11.2667 36.98 11.8C36.98 12.1733 37.1 12.4867 37.34 12.74C37.5933 12.98 37.9 13.18 38.26 13.34C38.6333 13.4867 39.1533 13.66 39.82 13.86C40.7267 14.1267 41.4667 14.3933 42.04 14.66C42.6133 14.9267 43.1067 15.3267 43.52 15.86C43.9333 16.3933 44.14 17.0933 44.14 17.96C44.14 18.7067 43.9467 19.4 43.56 20.04C43.1733 20.68 42.6067 21.1933 41.86 21.58C41.1133 21.9533 40.2267 22.14 39.2 22.14ZM49.3675 12.52C49.7275 12.0133 50.2208 11.5933 50.8475 11.26C51.4875 10.9133 52.2142 10.74 53.0275 10.74C53.9742 10.74 54.8275 10.9733 55.5875 11.44C56.3608 11.9067 56.9675 12.5733 57.4075 13.44C57.8608 14.2933 58.0875 15.2867 58.0875 16.42C58.0875 17.5533 57.8608 18.56 57.4075 19.44C56.9675 20.3067 56.3608 20.98 55.5875 21.46C54.8275 21.94 53.9742 22.18 53.0275 22.18C52.2142 22.18 51.4942 22.0133 50.8675 21.68C50.2542 21.3467 49.7542 20.9267 49.3675 20.42V27.28H46.5675V10.92H49.3675V12.52ZM55.2275 16.42C55.2275 15.7533 55.0875 15.18 54.8075 14.7C54.5408 14.2067 54.1808 13.8333 53.7275 13.58C53.2875 13.3267 52.8075 13.2 52.2875 13.2C51.7808 13.2 51.3008 13.3333 50.8475 13.6C50.4075 13.8533 50.0475 14.2267 49.7675 14.72C49.5008 15.2133 49.3675 15.7933 49.3675 16.46C49.3675 17.1267 49.5008 17.7067 49.7675 18.2C50.0475 18.6933 50.4075 19.0733 50.8475 19.34C51.3008 19.5933 51.7808 19.72 52.2875 19.72C52.8075 19.72 53.2875 19.5867 53.7275 19.32C54.1808 19.0533 54.5408 18.6733 54.8075 18.18C55.0875 17.6867 55.2275 17.1 55.2275 16.42ZM59.4022 16.42C59.4022 15.3 59.6222 14.3067 60.0622 13.44C60.5155 12.5733 61.1222 11.9067 61.8822 11.44C62.6555 10.9733 63.5155 10.74 64.4622 10.74C65.2889 10.74 66.0089 10.9067 66.6222 11.24C67.2489 11.5733 67.7489 11.9933 68.1222 12.5V10.92H70.9422V22H68.1222V20.38C67.7622 20.9 67.2622 21.3333 66.6222 21.68C65.9955 22.0133 65.2689 22.18 64.4422 22.18C63.5089 22.18 62.6555 21.94 61.8822 21.46C61.1222 20.98 60.5155 20.3067 60.0622 19.44C59.6222 18.56 59.4022 17.5533 59.4022 16.42ZM68.1222 16.46C68.1222 15.78 67.9889 15.2 67.7222 14.72C67.4555 14.2267 67.0955 13.8533 66.6422 13.6C66.1889 13.3333 65.7022 13.2 65.1822 13.2C64.6622 13.2 64.1822 13.3267 63.7422 13.58C63.3022 13.8333 62.9422 14.2067 62.6622 14.7C62.3955 15.18 62.2622 15.7533 62.2622 16.42C62.2622 17.0867 62.3955 17.6733 62.6622 18.18C62.9422 18.6733 63.3022 19.0533 63.7422 19.32C64.1955 19.5867 64.6755 19.72 65.1822 19.72C65.7022 19.72 66.1889 19.5933 66.6422 19.34C67.0955 19.0733 67.4555 18.7 67.7222 18.22C67.9889 17.7267 68.1222 17.14 68.1222 16.46ZM76.4769 12.64C76.8369 12.0533 77.3035 11.5933 77.8769 11.26C78.4635 10.9267 79.1302 10.76 79.8769 10.76V13.7H79.1369C78.2569 13.7 77.5902 13.9067 77.1369 14.32C76.6969 14.7333 76.4769 15.4533 76.4769 16.48V22H73.6769V10.92H76.4769V12.64ZM88.3228 22L84.5628 17.28V22H81.7628V7.2H84.5628V15.62L88.2828 10.92H91.9228L87.0428 16.48L91.9628 22H88.3228ZM96.2425 7.2V22H93.4425V7.2H96.2425ZM109.309 16.22C109.309 16.62 109.282 16.98 109.229 17.3H101.129C101.196 18.1 101.476 18.7267 101.969 19.18C102.462 19.6333 103.069 19.86 103.789 19.86C104.829 19.86 105.569 19.4133 106.009 18.52H109.029C108.709 19.5867 108.096 20.4667 107.189 21.16C106.282 21.84 105.169 22.18 103.849 22.18C102.782 22.18 101.822 21.9467 100.969 21.48C100.129 21 99.4689 20.3267 98.9889 19.46C98.5222 18.5933 98.2889 17.5933 98.2889 16.46C98.2889 15.3133 98.5222 14.3067 98.9889 13.44C99.4556 12.5733 100.109 11.9067 100.949 11.44C101.789 10.9733 102.756 10.74 103.849 10.74C104.902 10.74 105.842 10.9667 106.669 11.42C107.509 11.8733 108.156 12.52 108.609 13.36C109.076 14.1867 109.309 15.14 109.309 16.22ZM106.409 15.42C106.396 14.7 106.136 14.1267 105.629 13.7C105.122 13.26 104.502 13.04 103.769 13.04C103.076 13.04 102.489 13.2533 102.009 13.68C101.542 14.0933 101.256 14.6733 101.149 15.42H106.409ZM126.858 22L125.338 20.5C124.045 21.66 122.465 22.24 120.598 22.24C119.572 22.24 118.665 22.0667 117.878 21.72C117.105 21.36 116.505 20.86 116.078 20.22C115.652 19.5667 115.438 18.8133 115.438 17.96C115.438 17.04 115.698 16.2133 116.218 15.48C116.738 14.7467 117.505 14.1533 118.518 13.7C118.158 13.26 117.898 12.84 117.738 12.44C117.578 12.0267 117.498 11.5867 117.498 11.12C117.498 10.48 117.665 9.90667 117.998 9.4C118.332 8.88 118.805 8.47333 119.418 8.18C120.045 7.88667 120.772 7.74 121.598 7.74C122.438 7.74 123.158 7.9 123.758 8.22C124.358 8.54 124.805 8.96667 125.098 9.5C125.392 10.0333 125.518 10.6267 125.478 11.28H122.758C122.772 10.84 122.665 10.5067 122.438 10.28C122.212 10.04 121.905 9.92 121.518 9.92C121.145 9.92 120.832 10.0333 120.578 10.26C120.338 10.4733 120.218 10.7533 120.218 11.1C120.218 11.4333 120.318 11.7667 120.518 12.1C120.718 12.42 121.045 12.82 121.498 13.3L125.018 16.78C125.045 16.7533 125.065 16.7267 125.078 16.7C125.092 16.6733 125.105 16.6467 125.118 16.62L126.258 14.72H129.178L127.778 17.18C127.512 17.7 127.225 18.1933 126.918 18.66L130.298 22H126.858ZM120.678 19.92C121.772 19.92 122.738 19.5333 123.578 18.76L120.138 15.36C118.845 15.9333 118.198 16.7467 118.198 17.8C118.198 18.4 118.425 18.9067 118.878 19.32C119.332 19.72 119.932 19.92 120.678 19.92ZM145.07 8.04V10.3H139.25V13.88H143.71V16.1H139.25V22H136.45V8.04H145.07ZM148.476 9.6C147.982 9.6 147.569 9.44667 147.236 9.14C146.916 8.82 146.756 8.42667 146.756 7.96C146.756 7.49333 146.916 7.10667 147.236 6.8C147.569 6.48 147.982 6.32 148.476 6.32C148.969 6.32 149.376 6.48 149.696 6.8C150.029 7.10667 150.196 7.49333 150.196 7.96C150.196 8.42667 150.029 8.82 149.696 9.14C149.376 9.44667 148.969 9.6 148.476 9.6ZM149.856 10.92V22H147.056V10.92H149.856ZM158.762 10.76C160.082 10.76 161.149 11.18 161.962 12.02C162.776 12.8467 163.182 14.0067 163.182 15.5V22H160.382V15.88C160.382 15 160.162 14.3267 159.722 13.86C159.282 13.38 158.682 13.14 157.922 13.14C157.149 13.14 156.536 13.38 156.082 13.86C155.642 14.3267 155.422 15 155.422 15.88V22H152.622V10.92H155.422V12.3C155.796 11.82 156.269 11.4467 156.842 11.18C157.429 10.9 158.069 10.76 158.762 10.76Z" fill="white"/>
</svg>
